<svg xmlns="http://www.w3.org/2000/svg" viewBox="0 0 300 200">
  <style>
    path {
      fill: #000;
    }
    @media (prefers-color-scheme: dark) {
      path {
        fill: #fff;
      }
    }
  </style>
  <path d="m213.03,99.13c-1.52,0-2.6.02-3.67,0-1.77-.04-3.23-.76-4.32-2.16-2.13-2.72-1.38-4.7,1.97-5.22,7.32-1.14,13.72.69,18.88,6.13,2.54,2.67,2.42,3.28-.45,5.46-.66.5-1.33,1-2,1.5-2.86,2.14-2.89,2.17-5.28-.48-.85-.94-1.55-1.24-2.77-.55-3.48,1.96-7.12,2.16-10.78.49-.97-.44-1.68-.43-2.36.52-4.12,5.74-3.84,14.61,1.9,19.22,4.4,3.53,12.4,2.38,15.69-2.23.67-.94.68-1.54-.63-1.63-.83-.06-1.67.05-2.5-.05-1.35-.15-3.32.72-3.91-.68-.82-1.95-.48-4.26-.12-6.4.12-.69.86-.71,1.44-.71,4.58-.02,9.16,0,13.75-.02,1.24,0,1.86.57,1.86,1.81,0,6.5,0,13,.01,19.5,0,1.33-.64,1.99-1.99,1.98-1.67-.01-3.33-.02-5,0-1.37.03-2.26-.41-2.24-1.97.02-1.4-.61-1.26-1.54-.65-11.21,7.33-28.25-.19-30.03-16.2-.91-8.2,1.32-15.11,7.74-20.48.64-.53.87-1.16.89-1.96.04-1.67.6-3.06,2.5-3.11,1.94-.05,2.53,1.43,2.63,3.02.29,4.99,6.55,7.75,10.34,4.87Z" />
  <path d="m30.49,135.42c0-12.11,9.9-22.06,21.88-22.01,11.7.05,21.4,10.14,21.39,22.25,0,12.03-9.76,21.93-21.64,21.95-11.94.02-21.64-9.92-21.64-22.19Zm32.46-.03c0-.66.06-1.34,0-1.99-.63-5.82-4.62-10.05-9.72-10.34-6.1-.35-10.17,2.76-11.61,8.95-.77,3.33-.52,6.63.86,9.77,3.21,7.31,12.75,8.77,17.64,2.68,2.11-2.63,2.97-5.72,2.84-9.07Z" />
  <path d="m87.4,128.76c5.62-4.82,11.21-5.72,16.72-2.83,5.42,2.84,9.09,9.85,8.47,16.14-.37,3.78-1.28,7.37-3.63,10.48-4.76,6.3-13.51,7.13-19.34,1.82-.29-.27-.51-.67-1.3-.58,0,4.35-.13,8.73.05,13.1.1,2.49-.65,3.55-3.23,3.27-1.56-.17-3.16-.1-4.74-.02-1.76.09-2.34-.75-2.34-2.4.02-13.49.02-26.99,0-40.48,0-1.66.61-2.51,2.35-2.4.91.05,1.83,0,2.75,0q3.86,0,4.23,3.89Zm.93,11.65c0,5.14,2.78,8.55,6.99,8.55,3.93,0,6.72-3.35,6.71-8.03-.02-4.49-2.96-7.74-7.05-7.78-4.12-.04-6.65,2.73-6.65,7.26Z" />
  <path d="m212.1,40.81c0,2.67.06,5.33-.02,8-.05,1.8.59,2.58,2.47,2.51,2.49-.1,5-.07,7.49,0,2.27.07,3.15,1.09,2.95,3.34-.6,6.79-1.19,13.59-1.84,20.38-.35,3.68-1.17,4.37-4.91,4.44-1.25.02-2.5-.02-3.75.02-.89.03-1.96-.15-2.21,1.09-.27,1.33.79,1.64,1.72,2.05,3.39,1.49,5.72,3.95,6.84,7.5.19.61.64,1.33.04,1.87-.59.53-1.24-.03-1.86-.22-1.76-.53-3.38-1.14-4.52-2.83-.97-1.43-2.68-2.05-4.35-2.2-2.49-.23-3.19-1.6-3.19-3.86,0-3.41-.06-3.41-3.47-3.43q-7.21-.03-7.91-7.14c-.52-5.38-1.02-10.76-1.51-16.15-.38-4.17.27-4.89,4.39-4.9,2.08,0,4.17-.08,6.25.02,1.76.09,2.34-.63,2.31-2.34-.07-5.25-.02-10.49-.02-15.74,0-1.71-.13-3.39,2.43-3.44,2.68-.05,2.64,1.73,2.66,3.53.03,2.5,0,5,0,7.5h0Zm-2.29,17.3v.04c-2.25,0-4.5,0-6.75,0-1.07,0-1.74.25-1.61,1.58.35,3.39.62,6.8.9,10.2.15,1.78.92,2.69,2.86,2.6,2.91-.13,5.84-.16,8.75-.04,2.08.09,2.82-.87,2.98-2.76.26-3.15.53-6.3.94-9.44.23-1.74-.48-2.24-2.06-2.19-2,.06-4,.02-6,.02Z" />
  <path d="m137.84,144.5c-3.16,0-6.33.03-9.49-.01-2.1-.03-2.22.91-1.39,2.48,1.99,3.77,8.04,4.65,11.23,1.3,1.46-1.53,2.67-1.59,4.36-.98,1.01.37,2.08.59,3.11.9,2.55.76,2.66,1.14,1.02,3.34-4.54,6.1-14.38,8.19-22.04,4.69-7.02-3.21-10.67-10.85-8.96-18.73,1.75-8.05,8.08-13.08,16.54-13.16,10.61-.09,17.69,6.84,17.61,17.09-.02,2.22-.68,3.2-3.01,3.1-2.99-.13-5.99-.03-8.99-.03h0Zm-5.25-12.49c-2.65-.07-4.65.97-5.84,3.41-.69,1.43-.64,2.42,1.33,2.4,3.06-.02,6.13-.03,9.2,0,1.69.02,1.73-.79,1.19-2.06-1.01-2.4-3.07-3.75-5.88-3.76Z" />
  <path d="m163.58,128.5c3.15-2.53,6.63-4.13,10.7-4.17,6.24-.06,10.07,3.06,10.36,9.32.34,7.23.11,14.48.15,21.73,0,1.27-.6,1.69-1.82,1.81q-8.44.83-8.44-7.51c0-3.75,0-7.49-.03-11.24-.01-1.82-.33-3.59-2.15-4.46-1.92-.91-3.74-.36-5.38.87-2.06,1.54-3.2,3.49-3.16,6.16.07,4.58-.04,9.16.04,13.74.03,1.84-.64,2.56-2.48,2.46-1.74-.1-3.5-.11-5.24,0-2.03.14-2.59-.82-2.58-2.67.05-8.99.06-17.98,0-26.98-.02-2.1.84-2.87,2.84-2.69.74.07,1.5-.01,2.25.01,4.76.17,3.57-.62,4.95,3.63Z" />
  <path d="m235.48,135.45c0-6.25.09-12.49-.05-18.74-.05-2.35.81-3.13,3.05-2.94,1.57.13,3.17.15,4.74,0,2.22-.21,2.91.75,2.9,2.86-.06,9.24-.03,18.49-.02,27.73,0,3.5.02,3.52,3.44,3.52,4.83,0,9.66.06,14.49-.02,2.01-.04,2.83.65,2.78,2.75-.19,7.8.98,6.43-6.4,6.51-7.41.08-14.82-.04-22.24.05-2.07.03-2.75-.7-2.72-2.74.09-6.33.03-12.66.03-18.99Z" />
</svg>
